<svg width="187" height="69" viewBox="0 0 187 69" fill="none" xmlns="http://www.w3.org/2000/svg">
<g id="App Store Black Border">
<rect id="Body" y="0.500244" width="186.847" height="67.9996" rx="10.2641" fill="#F4F4F4"/>
<g id="Logo">
<g id="Apple logo">
<path d="M42.8272 35.5308C42.864 32.6579 44.4009 29.9394 46.8391 28.4346C45.3009 26.2293 42.7247 24.8311 40.0443 24.7469C37.1855 24.4457 34.4141 26.4643 32.9573 26.4643C31.4723 26.4643 29.2293 24.7769 26.814 24.8267C23.6658 24.9289 20.7308 26.7258 19.1991 29.4889C15.9066 35.2116 18.3625 43.6221 21.5165 48.248C23.0945 50.5131 24.9387 53.0433 27.3518 52.9536C29.7132 52.8553 30.5951 51.4419 33.4455 51.4419C36.2695 51.4419 37.0969 52.9536 39.559 52.8965C42.0929 52.8552 43.6893 50.6213 45.212 48.3347C46.3457 46.7208 47.2182 44.9369 47.797 43.0494C44.8192 41.785 42.8306 38.7766 42.8272 35.5308Z" fill="#090909"/>
<path d="M38.1767 21.7048C39.5582 20.0398 40.2389 17.8997 40.0741 15.739C37.9633 15.9616 36.0136 16.9743 34.6133 18.5754C33.2441 20.1398 32.5315 22.2422 32.6663 24.3203C34.7778 24.3422 36.8535 23.3569 38.1767 21.7048Z" fill="#090909"/>
</g>
</g>
<g id="Texto">
<g id="App Store">
<path d="M127.051 32.5639V36.0453H124.877V38.3284H127.051V46.0859C127.051 48.7348 128.245 49.7943 131.248 49.7943C131.775 49.7943 132.278 49.7312 132.718 49.6556V47.3977C132.341 47.4355 132.102 47.4608 131.687 47.4608C130.343 47.4608 129.752 46.8301 129.752 45.3921V38.3284H132.718V36.0453H129.752V32.5639H127.051Z" fill="#090909"/>
<path d="M140.368 49.9835C144.363 49.9835 146.813 47.2968 146.813 42.8441C146.813 38.4167 144.351 35.7173 140.368 35.7173C136.372 35.7173 133.909 38.4167 133.909 42.8441C133.909 47.2968 136.359 49.9835 140.368 49.9835ZM140.368 47.5743C138.018 47.5743 136.699 45.8462 136.699 42.8441C136.699 39.8673 138.018 38.1266 140.368 38.1266C142.705 38.1266 144.037 39.8673 144.037 42.8441C144.037 45.8336 142.705 47.5743 140.368 47.5743Z" fill="#090909"/>
<path d="M148.91 49.7186H151.611V41.608C151.611 39.678 153.056 38.3788 155.104 38.3788C155.582 38.3788 156.386 38.4671 156.612 38.5428V35.8687C156.323 35.793 155.808 35.7552 155.406 35.7552C153.621 35.7552 152.101 36.739 151.712 38.0887H151.511V35.9822H148.91V49.7186Z" fill="#090909"/>
<path d="M163.319 38.0256C165.317 38.0256 166.624 39.4258 166.687 41.5827H159.776C159.927 39.4384 161.322 38.0256 163.319 38.0256ZM166.674 46.0102C166.172 47.0823 165.053 47.6752 163.42 47.6752C161.259 47.6752 159.864 46.1489 159.776 43.7397V43.5883H169.438V42.6423C169.438 38.3284 167.139 35.7173 163.332 35.7173C159.475 35.7173 157.024 38.505 157.024 42.8946C157.024 47.2842 159.424 49.9835 163.345 49.9835C166.473 49.9835 168.659 48.4699 169.275 46.0102H166.674Z" fill="#090909"/>
<path d="M109.335 44.646C109.544 48.019 112.344 50.1762 116.511 50.1762C120.965 50.1762 123.752 47.9144 123.752 44.3061C123.752 41.469 122.163 39.9002 118.308 38.9981L116.238 38.4882C113.789 37.913 112.8 37.1416 112.8 35.795C112.8 34.0954 114.336 32.9841 116.641 32.9841C118.829 32.9841 120.34 34.0693 120.613 35.8081H123.452C123.283 32.6311 120.496 30.3955 116.68 30.3955C112.578 30.3955 109.843 32.6311 109.843 35.9911C109.843 38.7628 111.393 40.4101 114.792 41.2076L117.214 41.7959C119.702 42.3842 120.796 43.2471 120.796 44.6852C120.796 46.3587 119.077 47.5745 116.733 47.5745C114.219 47.5745 112.474 46.4371 112.227 44.646H109.335Z" fill="#090909"/>
<path d="M81.3515 35.7552C79.4919 35.7552 77.8836 36.6886 77.0543 38.2527H76.8533V35.9822H74.2524V54.2848H76.9538V47.6374H77.1674C77.8836 49.0879 79.4291 49.9457 81.3766 49.9457C84.8319 49.9457 87.0307 47.2085 87.0307 42.8441C87.0307 38.4797 84.8319 35.7552 81.3515 35.7552ZM80.585 47.5112C78.3234 47.5112 76.9035 45.7201 76.9035 42.8567C76.9035 39.9808 78.3234 38.1896 80.5976 38.1896C82.8844 38.1896 84.2539 39.9429 84.2539 42.8441C84.2539 45.7579 82.8844 47.5112 80.585 47.5112Z" fill="#090909"/>
<path d="M96.4834 35.7552C94.6239 35.7552 93.0156 36.6886 92.1863 38.2527H91.9853V35.9822H89.3844V54.2848H92.0858V47.6374H92.2994C93.0156 49.0879 94.561 49.9457 96.5086 49.9457C99.9639 49.9457 102.163 47.2085 102.163 42.8441C102.163 38.4797 99.9639 35.7552 96.4834 35.7552ZM95.717 47.5112C93.4553 47.5112 92.0355 45.7201 92.0355 42.8567C92.0355 39.9808 93.4553 38.1896 95.7296 38.1896C98.0163 38.1896 99.3859 39.9429 99.3859 42.8441C99.3859 45.7579 98.0163 47.5112 95.717 47.5112Z" fill="#090909"/>
<path d="M69.4055 49.7186H72.505L65.72 30.8531H62.5815L55.7965 49.7186H58.7918L60.5239 44.7114H67.6865L69.4055 49.7186ZM64.001 34.2784H64.2224L66.9442 42.2535H61.2662L64.001 34.2784Z" fill="#090909"/>
</g>
<g id="Download on the">
<path d="M55.7197 17.5464V25.0034H58.4017C60.6152 25.0034 61.8969 23.634 61.8969 21.2516C61.8969 18.9055 60.6049 17.5464 58.4017 17.5464H55.7197ZM56.8728 18.6006H58.273C59.8121 18.6006 60.7233 19.5824 60.7233 21.2671C60.7233 22.9777 59.8276 23.9492 58.273 23.9492H56.8728V18.6006Z" fill="#090909"/>
<path d="M65.8225 25.1119C67.4595 25.1119 68.4633 24.0112 68.4633 22.187C68.4633 20.3731 67.4543 19.2672 65.8225 19.2672C64.1856 19.2672 63.1766 20.3731 63.1766 22.187C63.1766 24.0112 64.1804 25.1119 65.8225 25.1119ZM65.8225 24.1249C64.8599 24.1249 64.3194 23.4169 64.3194 22.187C64.3194 20.9674 64.8599 20.2543 65.8225 20.2543C66.78 20.2543 67.3256 20.9674 67.3256 22.187C67.3256 23.4118 66.78 24.1249 65.8225 24.1249Z" fill="#090909"/>
<path d="M77.0115 19.3757H75.9047L74.9061 23.6701H74.8186L73.6655 19.3757H72.6051L71.452 23.6701H71.3696L70.3658 19.3757H69.2437L70.788 25.0034H71.9256L73.0787 20.8589H73.1662L74.3244 25.0034H75.4723L77.0115 19.3757Z" fill="#090909"/>
<path d="M78.286 25.0034H79.3928V21.7116C79.3928 20.833 79.9127 20.2853 80.7312 20.2853C81.5496 20.2853 81.9409 20.7349 81.9409 21.6392V25.0034H83.0476V21.3602C83.0476 20.0217 82.3578 19.2672 81.1069 19.2672C80.2627 19.2672 79.7068 19.6445 79.434 20.2698H79.3516V19.3757H78.286V25.0034Z" fill="#090909"/>
<path d="M84.7906 25.0034H85.8974V17.1794H84.7906V25.0034Z" fill="#090909"/>
<path d="M90.0598 25.1119C91.6967 25.1119 92.7005 24.0112 92.7005 22.187C92.7005 20.3731 91.6916 19.2672 90.0598 19.2672C88.4228 19.2672 87.4139 20.3731 87.4139 22.187C87.4139 24.0112 88.4177 25.1119 90.0598 25.1119ZM90.0598 24.1249C89.0971 24.1249 88.5566 23.4169 88.5566 22.187C88.5566 20.9674 89.0971 20.2543 90.0598 20.2543C91.0172 20.2543 91.5629 20.9674 91.5629 22.187C91.5629 23.4118 91.0172 24.1249 90.0598 24.1249Z" fill="#090909"/>
<path d="M95.9981 24.1611C95.3958 24.1611 94.9583 23.8665 94.9583 23.3601C94.9583 22.864 95.3083 22.6004 96.0805 22.5487L97.4497 22.4609V22.9311C97.4497 23.6288 96.832 24.1611 95.9981 24.1611ZM95.715 25.0964C96.4511 25.0964 97.0637 24.776 97.3983 24.2128H97.4858V25.0034H98.5513V21.1586C98.5513 19.97 97.7586 19.2672 96.3533 19.2672C95.0818 19.2672 94.1758 19.8873 94.0626 20.8537H95.1333C95.2568 20.4558 95.6841 20.2284 96.3018 20.2284C97.0585 20.2284 97.4497 20.5643 97.4497 21.1586V21.6444L95.9312 21.7322C94.5979 21.8149 93.8464 22.3989 93.8464 23.4118C93.8464 24.4401 94.634 25.0964 95.715 25.0964Z" fill="#090909"/>
<path d="M102.307 25.0964C103.079 25.0964 103.733 24.7295 104.068 24.1146H104.155V25.0034H105.215V17.1794H104.109V20.2698H104.026C103.723 19.6496 103.074 19.2827 102.307 19.2827C100.891 19.2827 99.9803 20.4093 99.9803 22.187C99.9803 23.9699 100.881 25.0964 102.307 25.0964ZM102.621 20.2801C103.548 20.2801 104.129 21.0191 104.129 22.1922C104.129 23.3704 103.553 24.0991 102.621 24.0991C101.684 24.0991 101.123 23.3807 101.123 22.187C101.123 21.0036 101.689 20.2801 102.621 20.2801Z" fill="#090909"/>
<path d="M112.392 25.1119C114.029 25.1119 115.033 24.0112 115.033 22.187C115.033 20.3731 114.024 19.2672 112.392 19.2672C110.755 19.2672 109.746 20.3731 109.746 22.187C109.746 24.0112 110.75 25.1119 112.392 25.1119ZM112.392 24.1249C111.43 24.1249 110.889 23.4169 110.889 22.187C110.889 20.9674 111.43 20.2543 112.392 20.2543C113.35 20.2543 113.895 20.9674 113.895 22.187C113.895 23.4118 113.35 24.1249 112.392 24.1249Z" fill="#090909"/>
<path d="M116.498 25.0034H117.605V21.7116C117.605 20.833 118.125 20.2853 118.943 20.2853C119.762 20.2853 120.153 20.7349 120.153 21.6392V25.0034H121.26V21.3602C121.26 20.0217 120.57 19.2672 119.319 19.2672C118.475 19.2672 117.919 19.6445 117.646 20.2698H117.564V19.3757H116.498V25.0034Z" fill="#090909"/>
<path d="M126.357 17.9753V19.4016H125.466V20.3369H126.357V23.5151C126.357 24.6003 126.846 25.0344 128.076 25.0344C128.292 25.0344 128.498 25.0086 128.679 24.9776V24.0526C128.524 24.0681 128.426 24.0784 128.256 24.0784C127.706 24.0784 127.464 23.82 127.464 23.2309V20.3369H128.679V19.4016H127.464V17.9753H126.357Z" fill="#090909"/>
<path d="M130.164 25.0034H131.271V21.7167C131.271 20.864 131.775 20.2904 132.681 20.2904C133.464 20.2904 133.881 20.7452 133.881 21.6444V25.0034H134.987V21.3705C134.987 20.032 134.251 19.2724 133.057 19.2724C132.213 19.2724 131.621 19.6496 131.348 20.2801H131.261V17.1794H130.164V25.0034Z" fill="#090909"/>
<path d="M138.98 20.2129C139.798 20.2129 140.334 20.7865 140.36 21.6702H137.528C137.59 20.7917 138.162 20.2129 138.98 20.2129ZM140.354 23.4841C140.149 23.9234 139.69 24.1662 139.021 24.1662C138.136 24.1662 137.564 23.5409 137.528 22.5539V22.4919H141.487V22.1043C141.487 20.3369 140.545 19.2672 138.985 19.2672C137.405 19.2672 136.401 20.4093 136.401 22.2077C136.401 24.006 137.384 25.1119 138.99 25.1119C140.272 25.1119 141.168 24.4918 141.42 23.4841H140.354Z" fill="#090909"/>
</g>
</g>
</g>
</svg>
