<svg width="187" height="68" viewBox="0 0 187 68" fill="none" xmlns="http://www.w3.org/2000/svg">
<g id="App Store Black Border">
<rect id="Body" width="186.847" height="67.9996" rx="10.2641" fill="#F4F4F4"/>
<g id="Logo">
<g id="Apple logo">
<path d="M42.8272 35.0305C42.864 32.1576 44.4009 29.4391 46.8391 27.9343C45.3009 25.729 42.7247 24.3308 40.0443 24.2466C37.1855 23.9454 34.4141 25.964 32.9573 25.964C31.4723 25.964 29.2293 24.2766 26.814 24.3264C23.6658 24.4286 20.7308 26.2255 19.1991 28.9886C15.9066 34.7113 18.3625 43.1218 21.5165 47.7477C23.0945 50.0128 24.9387 52.543 27.3518 52.4533C29.7132 52.355 30.5951 50.9416 33.4455 50.9416C36.2695 50.9416 37.0969 52.4533 39.559 52.3962C42.0929 52.3549 43.6893 50.121 45.212 47.8344C46.3457 46.2204 47.2182 44.4366 47.797 42.5491C44.8192 41.2847 42.8306 38.2763 42.8272 35.0305Z" fill="#090909"/>
<path d="M38.1767 21.2045C39.5582 19.5395 40.2389 17.3994 40.0741 15.2387C37.9633 15.4613 36.0136 16.474 34.6133 18.0751C33.2441 19.6395 32.5315 21.7419 32.6663 23.82C34.7778 23.8419 36.8535 22.8566 38.1767 21.2045Z" fill="#090909"/>
</g>
</g>
<g id="Texto">
<g id="App Store">
<path d="M127.051 32.0636V35.545H124.877V37.8281H127.051V45.5856C127.051 48.2345 128.245 49.294 131.248 49.294C131.775 49.294 132.278 49.231 132.718 49.1553V46.8974C132.341 46.9353 132.102 46.9605 131.687 46.9605C130.343 46.9605 129.752 46.3298 129.752 44.8918V37.8281H132.718V35.545H129.752V32.0636H127.051Z" fill="#090909"/>
<path d="M140.368 49.4832C144.363 49.4832 146.813 46.7965 146.813 42.3438C146.813 37.9164 144.351 35.217 140.368 35.217C136.372 35.217 133.909 37.9164 133.909 42.3438C133.909 46.7965 136.359 49.4832 140.368 49.4832ZM140.368 47.074C138.018 47.074 136.699 45.3459 136.699 42.3438C136.699 39.367 138.018 37.6263 140.368 37.6263C142.705 37.6263 144.037 39.367 144.037 42.3438C144.037 45.3333 142.705 47.074 140.368 47.074Z" fill="#090909"/>
<path d="M148.91 49.2184H151.611V41.1077C151.611 39.1778 153.056 37.8785 155.104 37.8785C155.582 37.8785 156.386 37.9668 156.612 38.0425V35.3684C156.323 35.2927 155.808 35.2549 155.406 35.2549C153.621 35.2549 152.101 36.2388 151.712 37.5884H151.511V35.4819H148.91V49.2184Z" fill="#090909"/>
<path d="M163.319 37.5254C165.317 37.5254 166.624 38.9255 166.687 41.0825H159.776C159.927 38.9381 161.322 37.5254 163.319 37.5254ZM166.674 45.5099C166.172 46.5821 165.053 47.1749 163.42 47.1749C161.259 47.1749 159.864 45.6486 159.776 43.2394V43.088H169.438V42.142C169.438 37.8281 167.139 35.217 163.332 35.217C159.475 35.217 157.024 38.0047 157.024 42.3943C157.024 46.7839 159.424 49.4832 163.345 49.4832C166.473 49.4832 168.659 47.9696 169.275 45.5099H166.674Z" fill="#090909"/>
<path d="M109.335 44.1457C109.544 47.5188 112.344 49.6759 116.511 49.6759C120.965 49.6759 123.752 47.4142 123.752 43.8058C123.752 40.9688 122.163 39.3999 118.308 38.4978L116.238 37.9879C113.789 37.4127 112.8 36.6413 112.8 35.2947C112.8 33.5951 114.336 32.4838 116.641 32.4838C118.829 32.4838 120.34 33.569 120.613 35.3078H123.452C123.283 32.1309 120.496 29.8952 116.68 29.8952C112.578 29.8952 109.843 32.1309 109.843 35.4908C109.843 38.2625 111.393 39.9098 114.792 40.7073L117.214 41.2956C119.702 41.8839 120.796 42.7468 120.796 44.1849C120.796 45.8584 119.077 47.0742 116.733 47.0742C114.219 47.0742 112.474 45.9368 112.227 44.1457H109.335Z" fill="#090909"/>
<path d="M81.3515 35.2549C79.4919 35.2549 77.8836 36.1883 77.0543 37.7524H76.8533V35.4819H74.2524V53.7845H76.9538V47.1371H77.1674C77.8836 48.5877 79.4291 49.4454 81.3766 49.4454C84.8319 49.4454 87.0307 46.7082 87.0307 42.3438C87.0307 37.9795 84.8319 35.2549 81.3515 35.2549ZM80.585 47.0109C78.3234 47.0109 76.9035 45.2198 76.9035 42.3564C76.9035 39.4805 78.3234 37.6893 80.5976 37.6893C82.8844 37.6893 84.2539 39.4427 84.2539 42.3438C84.2539 45.2576 82.8844 47.0109 80.585 47.0109Z" fill="#090909"/>
<path d="M96.4834 35.2549C94.6239 35.2549 93.0156 36.1883 92.1863 37.7524H91.9853V35.4819H89.3844V53.7845H92.0858V47.1371H92.2994C93.0156 48.5877 94.561 49.4454 96.5086 49.4454C99.9639 49.4454 102.163 46.7082 102.163 42.3438C102.163 37.9795 99.9639 35.2549 96.4834 35.2549ZM95.717 47.0109C93.4553 47.0109 92.0355 45.2198 92.0355 42.3564C92.0355 39.4805 93.4553 37.6893 95.7296 37.6893C98.0163 37.6893 99.3859 39.4427 99.3859 42.3438C99.3859 45.2576 98.0163 47.0109 95.717 47.0109Z" fill="#090909"/>
<path d="M69.4055 49.2184H72.505L65.72 30.3528H62.5815L55.7965 49.2184H58.7918L60.5239 44.2111H67.6865L69.4055 49.2184ZM64.001 33.7782H64.2224L66.9442 41.7532H61.2662L64.001 33.7782Z" fill="#090909"/>
</g>
<g id="Download on the">
<path d="M55.7197 17.0461V24.5031H58.4017C60.6152 24.5031 61.8969 23.1337 61.8969 20.7514C61.8969 18.4052 60.6049 17.0461 58.4017 17.0461H55.7197ZM56.8728 18.1003H58.273C59.8121 18.1003 60.7233 19.0822 60.7233 20.7669C60.7233 22.4774 59.8276 23.4489 58.273 23.4489H56.8728V18.1003Z" fill="#090909"/>
<path d="M65.8225 24.6117C67.4595 24.6117 68.4633 23.5109 68.4633 21.6867C68.4633 19.8728 67.4543 18.7669 65.8225 18.7669C64.1856 18.7669 63.1766 19.8728 63.1766 21.6867C63.1766 23.5109 64.1804 24.6117 65.8225 24.6117ZM65.8225 23.6246C64.8599 23.6246 64.3194 22.9166 64.3194 21.6867C64.3194 20.4671 64.8599 19.754 65.8225 19.754C66.78 19.754 67.3256 20.4671 67.3256 21.6867C67.3256 22.9115 66.78 23.6246 65.8225 23.6246Z" fill="#090909"/>
<path d="M77.0115 18.8755H75.9047L74.9061 23.1699H74.8186L73.6655 18.8755H72.6051L71.452 23.1699H71.3696L70.3658 18.8755H69.2437L70.788 24.5031H71.9256L73.0787 20.3586H73.1662L74.3244 24.5031H75.4723L77.0115 18.8755Z" fill="#090909"/>
<path d="M78.286 24.5031H79.3928V21.2113C79.3928 20.3328 79.9127 19.785 80.7312 19.785C81.5496 19.785 81.9409 20.2346 81.9409 21.1389V24.5031H83.0476V20.8599C83.0476 19.5214 82.3578 18.7669 81.1069 18.7669C80.2627 18.7669 79.7068 19.1442 79.434 19.7695H79.3516V18.8755H78.286V24.5031Z" fill="#090909"/>
<path d="M84.7906 24.5031H85.8974V16.6792H84.7906V24.5031Z" fill="#090909"/>
<path d="M90.0598 24.6117C91.6967 24.6117 92.7005 23.5109 92.7005 21.6867C92.7005 19.8728 91.6916 18.7669 90.0598 18.7669C88.4228 18.7669 87.4139 19.8728 87.4139 21.6867C87.4139 23.5109 88.4177 24.6117 90.0598 24.6117ZM90.0598 23.6246C89.0971 23.6246 88.5566 22.9166 88.5566 21.6867C88.5566 20.4671 89.0971 19.754 90.0598 19.754C91.0172 19.754 91.5629 20.4671 91.5629 21.6867C91.5629 22.9115 91.0172 23.6246 90.0598 23.6246Z" fill="#090909"/>
<path d="M95.9981 23.6608C95.3958 23.6608 94.9583 23.3662 94.9583 22.8598C94.9583 22.3637 95.3083 22.1001 96.0805 22.0485L97.4497 21.9606V22.4309C97.4497 23.1285 96.832 23.6608 95.9981 23.6608ZM95.715 24.5962C96.4511 24.5962 97.0637 24.2758 97.3983 23.7125H97.4858V24.5031H98.5513V20.6583C98.5513 19.4698 97.7586 18.7669 96.3533 18.7669C95.0818 18.7669 94.1758 19.3871 94.0626 20.3534H95.1333C95.2568 19.9555 95.6841 19.7281 96.3018 19.7281C97.0585 19.7281 97.4497 20.064 97.4497 20.6583V21.1441L95.9312 21.232C94.5979 21.3146 93.8464 21.8986 93.8464 22.9115C93.8464 23.9399 94.634 24.5962 95.715 24.5962Z" fill="#090909"/>
<path d="M102.307 24.5962C103.079 24.5962 103.733 24.2292 104.068 23.6143H104.155V24.5031H105.215V16.6792H104.109V19.7695H104.026C103.723 19.1493 103.074 18.7824 102.307 18.7824C100.891 18.7824 99.9803 19.909 99.9803 21.6867C99.9803 23.4696 100.881 24.5962 102.307 24.5962ZM102.621 19.7798C103.548 19.7798 104.129 20.5188 104.129 21.6919C104.129 22.8701 103.553 23.5988 102.621 23.5988C101.684 23.5988 101.123 22.8805 101.123 21.6867C101.123 20.5033 101.689 19.7798 102.621 19.7798Z" fill="#090909"/>
<path d="M112.392 24.6117C114.029 24.6117 115.033 23.5109 115.033 21.6867C115.033 19.8728 114.024 18.7669 112.392 18.7669C110.755 18.7669 109.746 19.8728 109.746 21.6867C109.746 23.5109 110.75 24.6117 112.392 24.6117ZM112.392 23.6246C111.43 23.6246 110.889 22.9166 110.889 21.6867C110.889 20.4671 111.43 19.754 112.392 19.754C113.35 19.754 113.895 20.4671 113.895 21.6867C113.895 22.9115 113.35 23.6246 112.392 23.6246Z" fill="#090909"/>
<path d="M116.498 24.5031H117.605V21.2113C117.605 20.3328 118.125 19.785 118.943 19.785C119.762 19.785 120.153 20.2346 120.153 21.1389V24.5031H121.26V20.8599C121.26 19.5214 120.57 18.7669 119.319 18.7669C118.475 18.7669 117.919 19.1442 117.646 19.7695H117.564V18.8755H116.498V24.5031Z" fill="#090909"/>
<path d="M126.357 17.475V18.9013H125.466V19.8367H126.357V23.0148C126.357 24.1001 126.846 24.5341 128.076 24.5341C128.292 24.5341 128.498 24.5083 128.679 24.4773V23.5523C128.524 23.5678 128.426 23.5781 128.256 23.5781C127.706 23.5781 127.464 23.3197 127.464 22.7306V19.8367H128.679V18.9013H127.464V17.475H126.357Z" fill="#090909"/>
<path d="M130.164 24.5031H131.271V21.2165C131.271 20.3638 131.775 19.7902 132.681 19.7902C133.464 19.7902 133.881 20.2449 133.881 21.1441V24.5031H134.987V20.8702C134.987 19.5318 134.251 18.7721 133.057 18.7721C132.213 18.7721 131.621 19.1493 131.348 19.7798H131.261V16.6792H130.164V24.5031Z" fill="#090909"/>
<path d="M138.98 19.7126C139.798 19.7126 140.334 20.2863 140.36 21.1699H137.528C137.59 20.2914 138.162 19.7126 138.98 19.7126ZM140.354 22.9838C140.149 23.4231 139.69 23.666 139.021 23.666C138.136 23.666 137.564 23.0407 137.528 22.0536V21.9916H141.487V21.604C141.487 19.8367 140.545 18.7669 138.985 18.7669C137.405 18.7669 136.401 19.909 136.401 21.7074C136.401 23.5058 137.384 24.6117 138.99 24.6117C140.272 24.6117 141.168 23.9915 141.42 22.9838H140.354Z" fill="#090909"/>
</g>
</g>
</g>
</svg>
