<svg width="184" height="68" viewBox="0 0 184 68" fill="none" xmlns="http://www.w3.org/2000/svg">
<g id="Google Play Black Border">
<rect id="Body" x="0.847656" width="182.444" height="67.9996" rx="10.2641" fill="#F4F4F4"/>
<g id="Google Play logo" filter="url(#filter0_ii_3_179)">
<path id="Vector" d="M19.0584 17.2185C18.6642 17.6374 18.4312 18.2875 18.4312 19.1293V49.2069C18.4312 50.0501 18.6642 50.6988 19.0584 51.1177L19.1586 51.2156L35.9421 34.3667V34.1681V33.9696L19.1586 17.1193L19.0584 17.2185Z" fill="url(#paint0_linear_3_179)"/>
<path id="Vector_2" d="M41.5352 39.9842L35.9416 34.3661V34.1676V33.969L41.5366 28.3522L41.6626 28.4243L48.2911 32.2051C50.1837 33.2849 50.1837 35.0515 48.2911 36.1327L41.6626 39.9135L41.5352 39.9842Z" fill="url(#paint1_linear_3_179)"/>
<g id="Vector_3" filter="url(#filter1_i_3_179)">
<path d="M41.6619 39.9129L35.9396 34.1683L19.0573 51.1179C19.6804 51.7816 20.7113 51.8632 21.8723 51.2022L41.6619 39.9129Z" fill="url(#paint2_linear_3_179)"/>
</g>
<path id="Vector_4" d="M41.6619 28.4238L21.8723 17.1358C20.7113 16.4735 19.6804 16.5565 19.0573 17.2201L35.9409 34.1697L41.6619 28.4238Z" fill="url(#paint3_linear_3_179)"/>
</g>
<g id="Group 147">
<path id="Google Play" d="M92.2763 35.8138C89.267 35.8138 86.8142 38.1017 86.8142 41.2527C86.8142 44.3845 89.267 46.6915 92.2763 46.6915C95.2869 46.6915 97.7397 44.3845 97.7397 41.2527C97.7384 38.1017 95.2856 35.8138 92.2763 35.8138ZM92.2763 44.5508C90.6271 44.5508 89.2056 43.1914 89.2056 41.254C89.2056 39.2961 90.6283 37.9572 92.2763 37.9572C93.9256 37.9572 95.3471 39.2961 95.3471 41.254C95.3471 43.1901 93.9256 44.5508 92.2763 44.5508ZM80.3593 35.8138C77.35 35.8138 74.8972 38.1017 74.8972 41.2527C74.8972 44.3845 77.35 46.6915 80.3593 46.6915C83.3699 46.6915 85.8226 44.3845 85.8226 41.2527C85.8226 38.1017 83.3699 35.8138 80.3593 35.8138ZM80.3593 44.5508C78.71 44.5508 77.2885 43.1914 77.2885 41.254C77.2885 39.2961 78.7113 37.9572 80.3593 37.9572C82.0085 37.9572 83.43 39.2961 83.43 41.254C83.4313 43.1901 82.0085 44.5508 80.3593 44.5508ZM66.1853 37.484V39.791H71.71C71.545 41.089 71.1125 42.0366 70.4523 42.6952C69.6488 43.4983 68.3911 44.3845 66.1853 44.3845C62.7844 44.3845 60.1257 41.644 60.1257 38.2449C60.1257 34.8458 62.7844 32.1052 66.1853 32.1052C68.02 32.1052 69.3596 32.8265 70.3487 33.7536L71.9774 32.1257C70.5956 30.8072 68.7621 29.7982 66.1853 29.7982C61.5267 29.7982 57.6102 33.5887 57.6102 38.2449C57.6102 42.9011 61.5267 46.6915 66.1853 46.6915C68.6994 46.6915 70.5969 45.8667 72.0798 44.3219C73.6049 42.7975 74.0796 40.6542 74.0796 38.9239C74.0796 38.3894 74.0387 37.8945 73.9555 37.4827L66.1853 37.484ZM124.156 39.2756C123.703 38.0607 122.321 35.8138 119.497 35.8138C116.694 35.8138 114.364 38.0185 114.364 41.2527C114.364 44.3014 116.673 46.6915 119.765 46.6915C122.258 46.6915 123.701 45.1672 124.3 44.281L122.445 43.0443C121.827 43.951 120.981 44.5482 119.765 44.5482C118.549 44.5482 117.683 43.9919 117.126 42.8998L124.403 39.892L124.156 39.2756ZM116.735 41.089C116.673 38.9866 118.364 37.9162 119.58 37.9162C120.528 37.9162 121.332 38.3907 121.601 39.0697L116.735 41.089ZM110.82 46.3629H113.21V30.3763H110.82V46.3629ZM106.902 37.03H106.82C106.284 36.3906 105.253 35.8138 103.955 35.8138C101.234 35.8138 98.7402 38.204 98.7402 41.2744C98.7402 44.3232 101.234 46.6928 103.955 46.6928C105.254 46.6928 106.284 46.1161 106.82 45.4575H106.902V46.2401C106.902 48.3208 105.789 49.4333 103.996 49.4333C102.533 49.4333 101.625 48.3834 101.254 47.4972L99.1727 48.363C99.7702 49.8042 101.357 51.5767 103.996 51.5767C106.8 51.5767 109.17 49.9283 109.17 45.9102V36.1451H106.903L106.902 37.03ZM104.161 44.5508C102.512 44.5508 101.132 43.1697 101.132 41.2744C101.132 39.3575 102.512 37.9572 104.161 37.9572C105.789 37.9572 107.067 39.3575 107.067 41.2744C107.067 43.1697 105.789 44.5508 104.161 44.5508ZM135.356 30.3763H129.636V46.3629H132.022V40.3064H135.355C138.001 40.3064 140.603 38.392 140.603 35.342C140.603 32.292 138.002 30.3763 135.356 30.3763ZM135.418 38.0812H132.022V32.6014H135.418C137.202 32.6014 138.216 34.0785 138.216 35.342C138.216 36.5799 137.202 38.0812 135.418 38.0812ZM150.173 35.7857C148.444 35.7857 146.654 36.5466 145.913 38.2334L148.032 39.117C148.485 38.2334 149.329 37.9444 150.213 37.9444C151.448 37.9444 152.703 38.6848 152.724 40.0007V40.1657C152.291 39.9189 151.365 39.5493 150.234 39.5493C147.95 39.5493 145.624 40.8038 145.624 43.1479C145.624 45.2874 147.497 46.6647 149.595 46.6647C151.2 46.6647 152.085 45.9447 152.641 45.1007H152.723V46.3347H155.028V40.2053C155.029 37.3689 152.908 35.7857 150.173 35.7857ZM149.883 44.547C149.103 44.547 148.011 44.1556 148.011 43.1888C148.011 41.9548 149.37 41.4816 150.544 41.4816C151.591 41.4816 152.087 41.708 152.724 42.0162C152.538 43.4983 151.263 44.547 149.883 44.547ZM163.424 36.1348L160.687 43.0661H160.605L157.765 36.1348H155.193L159.453 45.8219L157.024 51.2109H159.514L166.079 36.1348H163.424ZM141.921 46.3629H144.307V30.3763H141.921V46.3629Z" fill="#090909"/>
<g id="Get it on">
<path d="M65.8883 20.9203C65.8883 21.9726 65.5712 22.8101 64.9359 23.4354C64.2149 24.1788 63.2741 24.5504 62.1185 24.5504C61.0114 24.5504 60.0693 24.1737 59.2959 23.4203C58.5212 22.6657 58.1339 21.7315 58.1339 20.6165C58.1339 19.5002 58.5212 18.566 59.2959 17.8126C60.0693 17.0579 61.0114 16.6812 62.1185 16.6812C62.6681 16.6812 63.1935 16.7867 63.6921 16.9964C64.1919 17.2073 64.592 17.4874 64.8912 17.8377L64.2175 18.5007C63.71 17.9042 63.0107 17.6066 62.1172 17.6066C61.3093 17.6066 60.6113 17.8854 60.022 18.4429C59.4327 19.0004 59.1387 19.7249 59.1387 20.6152C59.1387 21.5055 59.4327 22.23 60.022 22.7875C60.6113 23.345 61.3093 23.6238 62.1172 23.6238C62.9737 23.6238 63.6882 23.3437 64.2597 22.7825C64.6304 22.4171 64.8451 21.9085 64.9027 21.2568H62.1172V20.3515H65.8333C65.8716 20.5486 65.8883 20.7383 65.8883 20.9203Z" fill="#090909"/>
<path d="M71.7815 17.7737H68.2891V20.162H71.4389V21.0673H68.2891V23.4556H71.7815V24.3822H67.3035V16.8483H71.7815V17.7737Z" fill="#090909"/>
<path d="M75.9372 24.3822H74.9516V17.7737H72.8091V16.8483H78.0797V17.7737H75.9372V24.3822Z" fill="#090909"/>
<path d="M81.8929 24.3822V16.8483H82.8784V24.3822H81.8929Z" fill="#090909"/>
<path d="M87.2493 24.3822H86.2637V17.7737H84.1212V16.8483H89.3917V17.7737H87.2493V24.3822Z" fill="#090909"/>
<path d="M99.3688 23.4091C98.6146 24.17 97.6776 24.5505 96.5565 24.5505C95.4354 24.5505 94.4984 24.17 93.7454 23.4091C92.9912 22.6482 92.6154 21.7165 92.6154 20.6153C92.6154 19.514 92.9912 18.5823 93.7454 17.8214C94.4984 17.0605 95.4354 16.6788 96.5565 16.6788C97.6712 16.6788 98.6069 17.0617 99.3637 17.8264C100.12 18.5911 100.499 19.5203 100.499 20.6153C100.499 21.7165 100.122 22.6482 99.3688 23.4091ZM94.4728 22.7775C95.0404 23.3425 95.7345 23.6238 96.5565 23.6238C97.3784 23.6238 98.0739 23.3413 98.6402 22.7775C99.2077 22.2125 99.4928 21.4917 99.4928 20.6153C99.4928 19.7388 99.2077 19.0181 98.6402 18.453C98.0739 17.888 97.3784 17.6067 96.5565 17.6067C95.7345 17.6067 95.0404 17.8892 94.4728 18.453C93.9065 19.0181 93.6214 19.7388 93.6214 20.6153C93.6214 21.4917 93.9065 22.2125 94.4728 22.7775Z" fill="#090909"/>
<path d="M101.882 24.3822V16.8483H103.081L106.809 22.7084H106.851L106.809 21.2569V16.8483H107.794V24.3822H106.765L102.865 18.2371H102.823L102.865 19.6886V24.3822H101.882Z" fill="#090909"/>
<path d="M65.8883 20.9203C65.8883 21.9726 65.5712 22.8101 64.9359 23.4354C64.2149 24.1788 63.2741 24.5504 62.1185 24.5504C61.0114 24.5504 60.0693 24.1737 59.2959 23.4203C58.5212 22.6657 58.1339 21.7315 58.1339 20.6165C58.1339 19.5002 58.5212 18.566 59.2959 17.8126C60.0693 17.0579 61.0114 16.6812 62.1185 16.6812C62.6681 16.6812 63.1935 16.7867 63.6921 16.9964C64.1919 17.2073 64.592 17.4874 64.8912 17.8377L64.2175 18.5007C63.71 17.9042 63.0107 17.6066 62.1172 17.6066C61.3093 17.6066 60.6113 17.8854 60.022 18.4429C59.4327 19.0004 59.1387 19.7249 59.1387 20.6152C59.1387 21.5055 59.4327 22.23 60.022 22.7875C60.6113 23.345 61.3093 23.6238 62.1172 23.6238C62.9737 23.6238 63.6882 23.3437 64.2597 22.7825C64.6304 22.4171 64.8451 21.9085 64.9027 21.2568H62.1172V20.3515H65.8333C65.8716 20.5486 65.8883 20.7383 65.8883 20.9203Z" stroke="white" stroke-width="0.0524781" stroke-miterlimit="10"/>
<path d="M71.7815 17.7737H68.2891V20.162H71.4389V21.0673H68.2891V23.4556H71.7815V24.3822H67.3035V16.8483H71.7815V17.7737Z" stroke="white" stroke-width="0.0524781" stroke-miterlimit="10"/>
<path d="M75.9372 24.3822H74.9516V17.7737H72.8091V16.8483H78.0797V17.7737H75.9372V24.3822Z" stroke="white" stroke-width="0.0524781" stroke-miterlimit="10"/>
<path d="M81.8929 24.3822V16.8483H82.8784V24.3822H81.8929Z" stroke="white" stroke-width="0.0524781" stroke-miterlimit="10"/>
<path d="M87.2493 24.3822H86.2637V17.7737H84.1212V16.8483H89.3917V17.7737H87.2493V24.3822Z" stroke="white" stroke-width="0.0524781" stroke-miterlimit="10"/>
<path d="M99.3688 23.4091C98.6146 24.17 97.6776 24.5505 96.5565 24.5505C95.4354 24.5505 94.4984 24.17 93.7454 23.4091C92.9912 22.6482 92.6154 21.7165 92.6154 20.6153C92.6154 19.514 92.9912 18.5823 93.7454 17.8214C94.4984 17.0605 95.4354 16.6788 96.5565 16.6788C97.6712 16.6788 98.6069 17.0617 99.3637 17.8264C100.12 18.5911 100.499 19.5203 100.499 20.6153C100.499 21.7165 100.122 22.6482 99.3688 23.4091ZM94.4728 22.7775C95.0404 23.3425 95.7345 23.6238 96.5565 23.6238C97.3784 23.6238 98.0739 23.3413 98.6402 22.7775C99.2077 22.2125 99.4928 21.4917 99.4928 20.6153C99.4928 19.7388 99.2077 19.0181 98.6402 18.453C98.0739 17.888 97.3784 17.6067 96.5565 17.6067C95.7345 17.6067 95.0404 17.8892 94.4728 18.453C93.9065 19.0181 93.6214 19.7388 93.6214 20.6153C93.6214 21.4917 93.9065 22.2125 94.4728 22.7775Z" stroke="white" stroke-width="0.0524781" stroke-miterlimit="10"/>
<path d="M101.882 24.3822V16.8483H103.081L106.809 22.7084H106.851L106.809 21.2569V16.8483H107.794V24.3822H106.765L102.865 18.2371H102.823L102.865 19.6886V24.3822H101.882Z" stroke="white" stroke-width="0.0524781" stroke-miterlimit="10"/>
</g>
</g>
</g>
<defs>
<filter id="filter0_ii_3_179" x="18.4312" y="16.6788" width="31.2794" height="34.9799" filterUnits="userSpaceOnUse" color-interpolation-filters="sRGB">
<feFlood flood-opacity="0" result="BackgroundImageFix"/>
<feBlend mode="normal" in="SourceGraphic" in2="BackgroundImageFix" result="shape"/>
<feColorMatrix in="SourceAlpha" type="matrix" values="0 0 0 0 0 0 0 0 0 0 0 0 0 0 0 0 0 0 127 0" result="hardAlpha"/>
<feOffset dy="-0.203999"/>
<feComposite in2="hardAlpha" operator="arithmetic" k2="-1" k3="1"/>
<feColorMatrix type="matrix" values="0 0 0 0 0 0 0 0 0 0 0 0 0 0 0 0 0 0 0.12 0"/>
<feBlend mode="normal" in2="shape" result="effect1_innerShadow_3_179"/>
<feColorMatrix in="SourceAlpha" type="matrix" values="0 0 0 0 0 0 0 0 0 0 0 0 0 0 0 0 0 0 127 0" result="hardAlpha"/>
<feOffset dy="0.203999"/>
<feComposite in2="hardAlpha" operator="arithmetic" k2="-1" k3="1"/>
<feColorMatrix type="matrix" values="0 0 0 0 1 0 0 0 0 1 0 0 0 0 1 0 0 0 0.25 0"/>
<feBlend mode="normal" in2="effect1_innerShadow_3_179" result="effect2_innerShadow_3_179"/>
</filter>
<filter id="filter1_i_3_179" x="19.0573" y="34.1683" width="22.6046" height="17.4904" filterUnits="userSpaceOnUse" color-interpolation-filters="sRGB">
<feFlood flood-opacity="0" result="BackgroundImageFix"/>
<feBlend mode="normal" in="SourceGraphic" in2="BackgroundImageFix" result="shape"/>
<feColorMatrix in="SourceAlpha" type="matrix" values="0 0 0 0 0 0 0 0 0 0 0 0 0 0 0 0 0 0 127 0" result="hardAlpha"/>
<feOffset dy="-0.203999"/>
<feComposite in2="hardAlpha" operator="arithmetic" k2="-1" k3="1"/>
<feColorMatrix type="matrix" values="0 0 0 0 0 0 0 0 0 0 0 0 0 0 0 0 0 0 0.08 0"/>
<feBlend mode="normal" in2="shape" result="effect1_innerShadow_3_179"/>
</filter>
<linearGradient id="paint0_linear_3_179" x1="34.4543" y1="18.8111" x2="11.6311" y2="41.5456" gradientUnits="userSpaceOnUse">
<stop stop-color="#00A0FF"/>
<stop offset="0.0066" stop-color="#00A1FF"/>
<stop offset="0.2601" stop-color="#00BEFF"/>
<stop offset="0.5122" stop-color="#00D2FF"/>
<stop offset="0.7604" stop-color="#00DFFF"/>
<stop offset="1" stop-color="#00E3FF"/>
</linearGradient>
<linearGradient id="paint1_linear_3_179" x1="50.7547" y1="34.1676" x2="17.9764" y2="34.1676" gradientUnits="userSpaceOnUse">
<stop stop-color="#FFE000"/>
<stop offset="0.4087" stop-color="#FFBD00"/>
<stop offset="0.7754" stop-color="#FFA500"/>
<stop offset="1" stop-color="#FF9C00"/>
</linearGradient>
<linearGradient id="paint2_linear_3_179" x1="38.5543" y1="37.288" x2="7.60315" y2="68.1188" gradientUnits="userSpaceOnUse">
<stop stop-color="#FF3A44"/>
<stop offset="1" stop-color="#C31162"/>
</linearGradient>
<linearGradient id="paint3_linear_3_179" x1="14.8054" y1="7.20761" x2="28.6259" y2="20.9744" gradientUnits="userSpaceOnUse">
<stop stop-color="#32A071"/>
<stop offset="0.0685" stop-color="#2DA771"/>
<stop offset="0.4762" stop-color="#15CF74"/>
<stop offset="0.8009" stop-color="#06E775"/>
<stop offset="1" stop-color="#00F076"/>
</linearGradient>
</defs>
</svg>
