<svg width="184" height="69" viewBox="0 0 184 69" fill="none" xmlns="http://www.w3.org/2000/svg">
<g id="Google Play Black Border">
<rect id="Body" x="0.847046" y="0.500244" width="182.444" height="67.9996" rx="10.2641" fill="#F4F4F4"/>
<g id="Google Play logo" filter="url(#filter0_ii_3_49)">
<path id="Vector" d="M19.0578 17.7187C18.6636 18.1375 18.4305 18.7876 18.4305 19.6295V49.7071C18.4305 50.5502 18.6636 51.199 19.0578 51.6178L19.158 51.7158L35.9415 34.8668V34.6683V34.4697L19.158 17.6194L19.0578 17.7187Z" fill="url(#paint0_linear_3_49)"/>
<path id="Vector_2" d="M41.5346 40.4843L35.941 34.8662V34.6676V34.4691L41.536 28.8523L41.662 28.9244L48.2905 32.7052C50.1831 33.785 50.1831 35.5516 48.2905 36.6328L41.662 40.4136L41.5346 40.4843Z" fill="url(#paint1_linear_3_49)"/>
<g id="Vector_3" filter="url(#filter1_i_3_49)">
<path d="M41.6613 40.4131L35.939 34.6685L19.0566 51.618C19.6798 52.2817 20.7107 52.3633 21.8717 51.7024L41.6613 40.4131Z" fill="url(#paint2_linear_3_49)"/>
</g>
<path id="Vector_4" d="M41.6613 28.924L21.8717 17.636C20.7107 16.9737 19.6798 17.0567 19.0566 17.7203L35.9403 34.6699L41.6613 28.924Z" fill="url(#paint3_linear_3_49)"/>
</g>
<g id="Group 147">
<path id="Google Play" d="M92.2757 36.3139C89.2664 36.3139 86.8136 38.6018 86.8136 41.7528C86.8136 44.8846 89.2664 47.1916 92.2757 47.1916C95.2863 47.1916 97.7391 44.8846 97.7391 41.7528C97.7378 38.6018 95.285 36.3139 92.2757 36.3139ZM92.2757 45.0509C90.6265 45.0509 89.205 43.6915 89.205 41.7541C89.205 39.7962 90.6277 38.4573 92.2757 38.4573C93.9249 38.4573 95.3464 39.7962 95.3464 41.7541C95.3464 43.6902 93.9249 45.0509 92.2757 45.0509ZM80.3587 36.3139C77.3493 36.3139 74.8966 38.6018 74.8966 41.7528C74.8966 44.8846 77.3493 47.1916 80.3587 47.1916C83.3693 47.1916 85.822 44.8846 85.822 41.7528C85.822 38.6018 83.3693 36.3139 80.3587 36.3139ZM80.3587 45.0509C78.7094 45.0509 77.2879 43.6915 77.2879 41.7541C77.2879 39.7962 78.7107 38.4573 80.3587 38.4573C82.0079 38.4573 83.4294 39.7962 83.4294 41.7541C83.4307 43.6902 82.0079 45.0509 80.3587 45.0509ZM66.1847 37.9841V40.2911H71.7094C71.5444 41.5891 71.1119 42.5367 70.4517 43.1953C69.6482 43.9984 68.3905 44.8846 66.1847 44.8846C62.7838 44.8846 60.1251 42.1441 60.1251 38.745C60.1251 35.3459 62.7838 32.6053 66.1847 32.6053C68.0194 32.6053 69.359 33.3266 70.3481 34.2538L71.9768 32.6258C70.595 31.3073 68.7615 30.2983 66.1847 30.2983C61.5261 30.2983 57.6096 34.0888 57.6096 38.745C57.6096 43.4012 61.5261 47.1916 66.1847 47.1916C68.6988 47.1916 70.5963 46.3668 72.0792 44.822C73.6043 43.2976 74.079 41.1543 74.079 39.424C74.079 38.8895 74.0381 38.3946 73.9549 37.9828L66.1847 37.9841ZM124.155 39.7757C123.702 38.5608 122.32 36.3139 119.497 36.3139C116.693 36.3139 114.363 38.5186 114.363 41.7528C114.363 44.8015 116.673 47.1916 119.764 47.1916C122.258 47.1916 123.701 45.6673 124.3 44.7811L122.444 43.5444C121.826 44.4511 120.981 45.0483 119.764 45.0483C118.548 45.0483 117.682 44.492 117.126 43.3999L124.402 40.3921L124.155 39.7757ZM116.734 41.5891C116.673 39.4867 118.363 38.4163 119.58 38.4163C120.528 38.4163 121.331 38.8908 121.6 39.5698L116.734 41.5891ZM110.819 46.863H113.209V30.8764H110.819V46.863ZM106.901 37.5301H106.819C106.283 36.8907 105.252 36.3139 103.955 36.3139C101.233 36.3139 98.7396 38.7041 98.7396 41.7745C98.7396 44.8233 101.233 47.1929 103.955 47.1929C105.253 47.1929 106.283 46.6162 106.819 45.9576H106.901V46.7402C106.901 48.8209 105.788 49.9334 103.996 49.9334C102.532 49.9334 101.625 48.8835 101.254 47.9973L99.1721 48.8631C99.7696 50.3043 101.356 52.0768 103.996 52.0768C106.799 52.0768 109.17 50.4284 109.17 46.4103V36.6452H106.903L106.901 37.5301ZM104.161 45.0509C102.512 45.0509 101.131 43.6698 101.131 41.7745C101.131 39.8576 102.512 38.4573 104.161 38.4573C105.788 38.4573 107.066 39.8576 107.066 41.7745C107.066 43.6698 105.788 45.0509 104.161 45.0509ZM135.356 30.8764H129.635V46.863H132.021V40.8065H135.354C138 40.8065 140.603 38.8921 140.603 35.8421C140.603 32.7921 138.002 30.8764 135.356 30.8764ZM135.417 38.5813H132.021V33.1015H135.417C137.202 33.1015 138.215 34.5786 138.215 35.8421C138.215 37.08 137.202 38.5813 135.417 38.5813ZM150.172 36.2858C148.443 36.2858 146.653 37.0467 145.913 38.7335L148.031 39.6172C148.484 38.7335 149.329 38.4445 150.213 38.4445C151.448 38.4445 152.703 39.1849 152.723 40.5008V40.6658C152.291 40.419 151.364 40.0494 150.233 40.0494C147.949 40.0494 145.623 41.3039 145.623 43.648C145.623 45.7875 147.497 47.1648 149.595 47.1648C151.199 47.1648 152.085 46.4448 152.64 45.6008H152.722V46.8349H155.028V40.7054C155.029 37.869 152.907 36.2858 150.172 36.2858ZM149.883 45.0471C149.102 45.0471 148.011 44.6557 148.011 43.6889C148.011 42.4549 149.37 41.9817 150.543 41.9817C151.591 41.9817 152.086 42.2081 152.723 42.5163C152.538 43.9984 151.262 45.0471 149.883 45.0471ZM163.423 36.6349L160.687 43.5662H160.605L157.764 36.6349H155.193L159.452 46.322L157.024 51.711H159.513L166.078 36.6349H163.423ZM141.921 46.863H144.307V30.8764H141.921V46.863Z" fill="#090909"/>
<g id="Get it on">
<path d="M65.8876 21.4205C65.8876 22.4727 65.5706 23.3103 64.9353 23.9356C64.2143 24.6789 63.2735 25.0506 62.1179 25.0506C61.0108 25.0506 60.0687 24.6739 59.2953 23.9205C58.5206 23.1659 58.1333 22.2317 58.1333 21.1166C58.1333 20.0004 58.5206 19.0661 59.2953 18.3128C60.0687 17.5581 61.0108 17.1814 62.1179 17.1814C62.6675 17.1814 63.1929 17.2869 63.6915 17.4966C64.1913 17.7075 64.5914 17.9875 64.8905 18.3379L64.2169 19.0009C63.7094 18.4044 63.0101 18.1068 62.1166 18.1068C61.3087 18.1068 60.6107 18.3856 60.0214 18.9431C59.4321 19.5006 59.1381 20.2251 59.1381 21.1154C59.1381 22.0056 59.4321 22.7302 60.0214 23.2877C60.6107 23.8452 61.3087 24.1239 62.1166 24.1239C62.9731 24.1239 63.6876 23.8439 64.2591 23.2826C64.6298 22.9173 64.8445 22.4087 64.902 21.757H62.1166V20.8517H65.8327C65.871 21.0488 65.8876 21.2384 65.8876 21.4205Z" fill="#090909"/>
<path d="M71.7809 18.2739H68.2885V20.6622H71.4383V21.5675H68.2885V23.9557H71.7809V24.8824H67.3029V17.3485H71.7809V18.2739Z" fill="#090909"/>
<path d="M75.9366 24.8824H74.951V18.2739H72.8085V17.3485H78.079V18.2739H75.9366V24.8824Z" fill="#090909"/>
<path d="M81.8922 24.8824V17.3485H82.8778V24.8824H81.8922Z" fill="#090909"/>
<path d="M87.2486 24.8824H86.2631V18.2739H84.1206V17.3485H89.3911V18.2739H87.2486V24.8824Z" fill="#090909"/>
<path d="M99.3682 23.9093C98.614 24.6702 97.677 25.0507 96.5559 25.0507C95.4348 25.0507 94.4978 24.6702 93.7448 23.9093C92.9906 23.1484 92.6148 22.2167 92.6148 21.1154C92.6148 20.0142 92.9906 19.0825 93.7448 18.3216C94.4978 17.5607 95.4348 17.179 96.5559 17.179C97.6706 17.179 98.6063 17.5619 99.3631 18.3266C100.12 19.0913 100.498 20.0205 100.498 21.1154C100.498 22.2167 100.121 23.1484 99.3682 23.9093ZM94.4722 23.2777C95.0398 23.8427 95.7339 24.124 96.5559 24.124C97.3778 24.124 98.0732 23.8415 98.6395 23.2777C99.2071 22.7126 99.4922 21.9919 99.4922 21.1154C99.4922 20.239 99.2071 19.5182 98.6395 18.9532C98.0732 18.3882 97.3778 18.1069 96.5559 18.1069C95.7339 18.1069 95.0398 18.3894 94.4722 18.9532C93.9059 19.5182 93.6208 20.239 93.6208 21.1154C93.6208 21.9919 93.9059 22.7126 94.4722 23.2777Z" fill="#090909"/>
<path d="M101.881 24.8824V17.3485H103.08L106.808 23.2086H106.85L106.808 21.7571V17.3485H107.794V24.8824H106.765L102.864 18.7372H102.822L102.864 20.1888V24.8824H101.881Z" fill="#090909"/>
<path d="M65.8876 21.4205C65.8876 22.4727 65.5706 23.3103 64.9353 23.9356C64.2143 24.6789 63.2735 25.0506 62.1179 25.0506C61.0108 25.0506 60.0687 24.6739 59.2953 23.9205C58.5206 23.1659 58.1333 22.2317 58.1333 21.1166C58.1333 20.0004 58.5206 19.0661 59.2953 18.3128C60.0687 17.5581 61.0108 17.1814 62.1179 17.1814C62.6675 17.1814 63.1929 17.2869 63.6915 17.4966C64.1913 17.7075 64.5914 17.9875 64.8905 18.3379L64.2169 19.0009C63.7094 18.4044 63.0101 18.1068 62.1166 18.1068C61.3087 18.1068 60.6107 18.3856 60.0214 18.9431C59.4321 19.5006 59.1381 20.2251 59.1381 21.1154C59.1381 22.0056 59.4321 22.7302 60.0214 23.2877C60.6107 23.8452 61.3087 24.1239 62.1166 24.1239C62.9731 24.1239 63.6876 23.8439 64.2591 23.2826C64.6298 22.9173 64.8445 22.4087 64.902 21.757H62.1166V20.8517H65.8327C65.871 21.0488 65.8876 21.2384 65.8876 21.4205Z" stroke="white" stroke-width="0.0524781" stroke-miterlimit="10"/>
<path d="M71.7809 18.2739H68.2885V20.6622H71.4383V21.5675H68.2885V23.9557H71.7809V24.8824H67.3029V17.3485H71.7809V18.2739Z" stroke="white" stroke-width="0.0524781" stroke-miterlimit="10"/>
<path d="M75.9366 24.8824H74.951V18.2739H72.8085V17.3485H78.079V18.2739H75.9366V24.8824Z" stroke="white" stroke-width="0.0524781" stroke-miterlimit="10"/>
<path d="M81.8922 24.8824V17.3485H82.8778V24.8824H81.8922Z" stroke="white" stroke-width="0.0524781" stroke-miterlimit="10"/>
<path d="M87.2486 24.8824H86.2631V18.2739H84.1206V17.3485H89.3911V18.2739H87.2486V24.8824Z" stroke="white" stroke-width="0.0524781" stroke-miterlimit="10"/>
<path d="M99.3682 23.9093C98.614 24.6702 97.677 25.0507 96.5559 25.0507C95.4348 25.0507 94.4978 24.6702 93.7448 23.9093C92.9906 23.1484 92.6148 22.2167 92.6148 21.1154C92.6148 20.0142 92.9906 19.0825 93.7448 18.3216C94.4978 17.5607 95.4348 17.179 96.5559 17.179C97.6706 17.179 98.6063 17.5619 99.3631 18.3266C100.12 19.0913 100.498 20.0205 100.498 21.1154C100.498 22.2167 100.121 23.1484 99.3682 23.9093ZM94.4722 23.2777C95.0398 23.8427 95.7339 24.124 96.5559 24.124C97.3778 24.124 98.0732 23.8415 98.6395 23.2777C99.2071 22.7126 99.4922 21.9919 99.4922 21.1154C99.4922 20.239 99.2071 19.5182 98.6395 18.9532C98.0732 18.3882 97.3778 18.1069 96.5559 18.1069C95.7339 18.1069 95.0398 18.3894 94.4722 18.9532C93.9059 19.5182 93.6208 20.239 93.6208 21.1154C93.6208 21.9919 93.9059 22.7126 94.4722 23.2777Z" stroke="white" stroke-width="0.0524781" stroke-miterlimit="10"/>
<path d="M101.881 24.8824V17.3485H103.08L106.808 23.2086H106.85L106.808 21.7571V17.3485H107.794V24.8824H106.765L102.864 18.7372H102.822L102.864 20.1888V24.8824H101.881Z" stroke="white" stroke-width="0.0524781" stroke-miterlimit="10"/>
</g>
</g>
</g>
<defs>
<filter id="filter0_ii_3_49" x="18.4305" y="17.179" width="31.2794" height="34.98" filterUnits="userSpaceOnUse" color-interpolation-filters="sRGB">
<feFlood flood-opacity="0" result="BackgroundImageFix"/>
<feBlend mode="normal" in="SourceGraphic" in2="BackgroundImageFix" result="shape"/>
<feColorMatrix in="SourceAlpha" type="matrix" values="0 0 0 0 0 0 0 0 0 0 0 0 0 0 0 0 0 0 127 0" result="hardAlpha"/>
<feOffset dy="-0.203999"/>
<feComposite in2="hardAlpha" operator="arithmetic" k2="-1" k3="1"/>
<feColorMatrix type="matrix" values="0 0 0 0 0 0 0 0 0 0 0 0 0 0 0 0 0 0 0.12 0"/>
<feBlend mode="normal" in2="shape" result="effect1_innerShadow_3_49"/>
<feColorMatrix in="SourceAlpha" type="matrix" values="0 0 0 0 0 0 0 0 0 0 0 0 0 0 0 0 0 0 127 0" result="hardAlpha"/>
<feOffset dy="0.203999"/>
<feComposite in2="hardAlpha" operator="arithmetic" k2="-1" k3="1"/>
<feColorMatrix type="matrix" values="0 0 0 0 1 0 0 0 0 1 0 0 0 0 1 0 0 0 0.25 0"/>
<feBlend mode="normal" in2="effect1_innerShadow_3_49" result="effect2_innerShadow_3_49"/>
</filter>
<filter id="filter1_i_3_49" x="19.0566" y="34.6685" width="22.6046" height="17.4905" filterUnits="userSpaceOnUse" color-interpolation-filters="sRGB">
<feFlood flood-opacity="0" result="BackgroundImageFix"/>
<feBlend mode="normal" in="SourceGraphic" in2="BackgroundImageFix" result="shape"/>
<feColorMatrix in="SourceAlpha" type="matrix" values="0 0 0 0 0 0 0 0 0 0 0 0 0 0 0 0 0 0 127 0" result="hardAlpha"/>
<feOffset dy="-0.203999"/>
<feComposite in2="hardAlpha" operator="arithmetic" k2="-1" k3="1"/>
<feColorMatrix type="matrix" values="0 0 0 0 0 0 0 0 0 0 0 0 0 0 0 0 0 0 0.08 0"/>
<feBlend mode="normal" in2="shape" result="effect1_innerShadow_3_49"/>
</filter>
<linearGradient id="paint0_linear_3_49" x1="34.4537" y1="19.3112" x2="11.6305" y2="42.0457" gradientUnits="userSpaceOnUse">
<stop stop-color="#00A0FF"/>
<stop offset="0.0066" stop-color="#00A1FF"/>
<stop offset="0.2601" stop-color="#00BEFF"/>
<stop offset="0.5122" stop-color="#00D2FF"/>
<stop offset="0.7604" stop-color="#00DFFF"/>
<stop offset="1" stop-color="#00E3FF"/>
</linearGradient>
<linearGradient id="paint1_linear_3_49" x1="50.7541" y1="34.6676" x2="17.9758" y2="34.6676" gradientUnits="userSpaceOnUse">
<stop stop-color="#FFE000"/>
<stop offset="0.4087" stop-color="#FFBD00"/>
<stop offset="0.7754" stop-color="#FFA500"/>
<stop offset="1" stop-color="#FF9C00"/>
</linearGradient>
<linearGradient id="paint2_linear_3_49" x1="38.5537" y1="37.7881" x2="7.60254" y2="68.619" gradientUnits="userSpaceOnUse">
<stop stop-color="#FF3A44"/>
<stop offset="1" stop-color="#C31162"/>
</linearGradient>
<linearGradient id="paint3_linear_3_49" x1="14.8048" y1="7.7078" x2="28.6253" y2="21.4746" gradientUnits="userSpaceOnUse">
<stop stop-color="#32A071"/>
<stop offset="0.0685" stop-color="#2DA771"/>
<stop offset="0.4762" stop-color="#15CF74"/>
<stop offset="0.8009" stop-color="#06E775"/>
<stop offset="1" stop-color="#00F076"/>
</linearGradient>
</defs>
</svg>
